<?xml version="1.0" encoding="utf-8"?>
<!-- Generator: Adobe Illustrator 24.0.1, SVG Export Plug-In . SVG Version: 6.00 Build 0)  -->
<svg version="1.1" id="Layer_1" xmlns="http://www.w3.org/2000/svg" xmlns:xlink="http://www.w3.org/1999/xlink" x="0px" y="0px"
	 viewBox="0 0 212.1 202" style="enable-background:new 0 0 212.1 202;" xml:space="preserve">
<style type="text/css">
	.st0{fill:#FFFFFF;}
</style>
<path class="st0" d="M70.4,180.2c-0.1-0.3-0.4-0.5-0.7-0.5h-2.6c-0.3,0-0.6,0.2-0.7,0.5l-6,16.6c-0.1,0.2-0.1,0.5,0.1,0.7
	c0.1,0.2,0.4,0.3,0.6,0.3h2.3c0.3,0,0.6-0.2,0.7-0.5l1.5-4.5h5.4l1.5,4.5c0.1,0.3,0.4,0.5,0.7,0.5h2.4c0.3,0,0.5-0.1,0.6-0.3
	c0.1-0.2,0.2-0.5,0.1-0.7L70.4,180.2z M66.8,189.5l0.5-1.5c0.4-1.1,0.7-2.2,1.1-3.4c0.4,1.2,0.7,2.3,1.1,3.4l0.5,1.5H66.8z
	 M92.3,194.4c0.3,0.3,0.3,0.8,0,1.1c-1.6,1.8-3.6,2.7-6,2.7c-5.2,0-8.6-3.8-8.6-9.4c0-5.6,3.5-9.4,8.7-9.4c2,0,4,0.8,5.4,2.3
	c0.3,0.3,0.3,0.8,0,1.1l-1.3,1.3c-0.1,0.2-0.3,0.2-0.5,0.2c-0.1,0-0.4-0.1-0.6-0.2c-0.9-0.9-1.9-1.3-3-1.3c-3,0-4.9,2.3-4.9,5.9
	c0,3.7,1.8,6,4.8,6c1.4,0,2.5-0.5,3.5-1.6c0.1-0.1,0.4-0.3,0.6-0.2c0.1,0,0.3,0.1,0.5,0.2L92.3,194.4z M23.5,180.4V197
	c0,0.4-0.3,0.8-0.8,0.8h-2.3c-0.3,0-0.5-0.1-0.7-0.4l-6.9-11.2c0,0.7,0.1,1.4,0.1,2.1v8.7c0,0.4-0.3,0.8-0.8,0.8H10
	c-0.4,0-0.8-0.3-0.8-0.8v-16.6c0-0.4,0.3-0.8,0.8-0.8h2.3c0.3,0,0.5,0.1,0.7,0.4l6.9,11.1c0-0.7-0.1-1.4-0.1-2.1v-8.6
	c0-0.4,0.3-0.8,0.8-0.8h2.2C23.2,179.6,23.5,180,23.5,180.4z M84.4,177.2l-2.6-2.8c-0.2-0.2-0.3-0.6-0.1-0.8
	c0.1-0.3,0.4-0.5,0.7-0.5h1.8c0.2,0,0.4,0.1,0.5,0.2l1.3,1.3l1.3-1.3c0.1-0.1,0.3-0.2,0.5-0.2h1.8c0.3,0,0.6,0.2,0.7,0.5
	c0.1,0.3,0.1,0.6-0.1,0.8l-2.6,2.8c-0.1,0.2-0.4,0.2-0.6,0.2H85C84.7,177.4,84.5,177.3,84.4,177.2z M36.1,180.2
	C36.1,180.2,36.1,180.2,36.1,180.2c-0.1-0.3-0.4-0.5-0.7-0.5h-2.6c-0.3,0-0.6,0.2-0.7,0.5l-6,16.6c-0.1,0.2-0.1,0.5,0.1,0.7
	c0.1,0.2,0.4,0.3,0.6,0.3h2.3c0.3,0,0.6-0.2,0.7-0.5l1.5-4.5h5.4l1.5,4.5c0.1,0.3,0.4,0.5,0.7,0.5h2.4c0.3,0,0.5-0.1,0.6-0.3
	c0.1-0.2,0.2-0.5,0.1-0.7L36.1,180.2z M32.5,189.5L33,188c0.4-1.1,0.7-2.2,1.1-3.4c0.4,1.2,0.7,2.3,1.1,3.4l0.5,1.5H32.5z
	 M49.9,179.6h-4.5c-0.4,0-0.8,0.3-0.8,0.8V197c0,0.4,0.3,0.8,0.8,0.8H50c5.8,0,9.1-3.3,9.1-9.2C59.1,182.8,55.8,179.6,49.9,179.6z
	 M49.7,194.5h-1.2v-11.6h1.2c3.7,0,5.5,1.9,5.5,5.7C55.2,192.6,53.4,194.5,49.7,194.5z M156.9,179.3c-5.1,0-8.4,3.7-8.4,9.3
	c0,5.7,3.4,9.5,8.4,9.5c5,0,8.4-3.8,8.4-9.5C165.3,183.1,161.9,179.3,156.9,179.3z M156.9,194.7c-2.8,0-4.5-2.4-4.5-6.1
	c0-3.6,1.7-5.9,4.5-5.9c2.8,0,4.5,2.3,4.5,5.9C161.4,192.3,159.7,194.7,156.9,194.7z M183.4,180.4V197c0,0.4-0.3,0.8-0.8,0.8h-2.3
	c-0.3,0-0.5-0.1-0.7-0.4l-6.9-11.2c0,0.7,0.1,1.4,0.1,2.1v8.7c0,0.4-0.3,0.8-0.8,0.8h-2.2c-0.4,0-0.8-0.3-0.8-0.8v-16.6
	c0-0.4,0.3-0.8,0.8-0.8h2.3c0.3,0,0.5,0.1,0.7,0.4l6.9,11.1c0-0.7-0.1-1.4-0.1-2.1v-8.6c0-0.4,0.3-0.8,0.8-0.8h2.2
	C183,179.6,183.4,180,183.4,180.4z M193.5,179.6H189c-0.4,0-0.8,0.3-0.8,0.8V197c0,0.4,0.3,0.8,0.8,0.8h4.6c5.8,0,9.1-3.3,9.1-9.2
	C202.7,182.8,199.4,179.6,193.5,179.6z M193.3,194.5h-1.2v-11.6h1.2c3.7,0,5.5,1.9,5.5,5.7C198.8,192.6,197,194.5,193.3,194.5z
	 M110,180.4V197c0,0.4-0.3,0.8-0.8,0.8h-2.3c-0.3,0-0.5-0.1-0.7-0.4l-6.9-11.2c0,0.7,0.1,1.4,0.1,2.1v8.7c0,0.4-0.3,0.8-0.8,0.8
	h-2.2c-0.4,0-0.8-0.3-0.8-0.8v-16.6c0-0.4,0.3-0.8,0.8-0.8h2.3c0.3,0,0.5,0.1,0.7,0.4l6.9,11.1c0-0.7-0.1-1.4-0.1-2.1v-8.6
	c0-0.4,0.3-0.8,0.8-0.8h2.2C109.7,179.6,110,180,110,180.4z M146.7,180.4v1.8c0,0.4-0.3,0.8-0.8,0.8h-7.3v4.1h6
	c0.4,0,0.8,0.3,0.8,0.8v1.8c0,0.4-0.3,0.8-0.8,0.8h-6v6.7c0,0.4-0.3,0.8-0.8,0.8h-2.3c-0.4,0-0.8-0.3-0.8-0.8v-16.6
	c0-0.4,0.3-0.8,0.8-0.8h10.3C146.4,179.6,146.7,180,146.7,180.4z M118.7,180.4V197c0,0.4-0.3,0.8-0.8,0.8h-2.3
	c-0.4,0-0.8-0.3-0.8-0.8v-16.6c0-0.4,0.3-0.8,0.8-0.8h2.3C118.4,179.6,118.7,180,118.7,180.4z M121.5,173.5c0.1,0.3,0,0.6-0.2,0.8
	l-3.1,2.8c-0.1,0.1-0.3,0.2-0.5,0.2h-1.9c-0.3,0-0.6-0.2-0.7-0.4c-0.1-0.3-0.1-0.6,0.1-0.8l2.4-2.8c0.1-0.2,0.4-0.3,0.6-0.3h2.6
	C121.1,173.1,121.4,173.2,121.5,173.5z M208.6,69.4c-0.3-0.4-0.7-0.7-1.1-0.8c-0.8-0.3-1.3,0.4-1.9,0.8c-0.4,0.3-0.8,0.5-1.2,0.5
	c-1.1,0-1.7-0.6-1.7-1.7c0-3.2,0.1-6.2,0-9.8c-0.1-4.9,0.3-9.7,0.1-14.6c0-0.3,0-0.6-0.1-0.9c0,0,0,0,0,0c-0.1-1.3-0.3-4.6-1.5-7.9
	c0-0.1-0.1-0.2-0.1-0.3c-0.1-0.3-0.2-0.5-0.4-0.8c-0.6-1.3-1.4-2.6-2.4-3.6c-0.2-0.2-0.4-0.4-0.6-0.5c-0.3-0.3-0.7-0.7-1.1-1
	c-5.5-4.1-14-4.1-22.7-1.6c-0.6,0.2-1.1,0.4-1.6,0.5c-0.1,0-0.1,0-0.2,0.1c-0.2,0.1-0.4,0.2-0.5,0.2c-0.3,0.1-0.6,0.2-0.9,0.4
	c-0.3,0.1-0.5,0.3-0.8,0.4c-0.3,0.2-0.6,0.3-0.9,0.5c-0.3,0.2-0.7,0.4-1,0.6c-0.3,0.2-0.5,0.4-0.8,0.5c-0.2,0.2-0.5,0.4-0.7,0.6
	c-0.4,0.3-0.7,0.6-1,0.9c-0.1,0.1-0.2,0.2-0.2,0.3c-1.5,1.6-2,2.9-2,2.9l0,0c-0.6,1.3-1,2.7-1.1,4.2c-0.2,4.3,3.7,6.5,7.5,6.5
	c2.1,0,3.7-0.9,5.4-2.6c1.4-1.4,2.2-3.6,2.4-6.6l0,0c0-0.1,0-0.1,0-0.2c0-0.6,0.1-0.6,0.1-1.3c0-0.2,0-0.3,0-0.5
	c0,0-0.1-0.8,0.1-1.1c0.2-0.3,0.6-0.3,1-0.3c1,0,2.2,0.1,3.4,0.4c1,0.3,2.4,0.9,2.4,1.8c0,1.6,0,4.2,0,6.1c0,0.9,0.1,2.9-0.3,3.5
	c-0.5,0.8-1.9,0.9-2.7,1.1c-2.2,0.7-3.6,1-4.3,1.3c-2.3,0.7-4.6,1.4-6.9,2.2c-3.4,1.2-7,2.6-9.5,5.4c-0.3,0.3-0.5,0.6-0.7,0.9
	c0.1-0.7,0.3-1.4,0.4-2.1c0.5-3.4,0.2-6.9-0.4-10.3c-0.8-4-2.2-7.8-4.7-11.1c-2.4-3-6.1-5.1-9.8-6.1c-2.5-0.6-5.3-0.4-7.8-0.1
	c-2.5,0.3-4.9,0.9-7.1,2.2c-0.7,0.4-1.5,0.9-2.1,1.4c-0.3,0.3-0.7,0.5-1,0.8c-0.1,0.1-0.7,0.8-0.9,0.7c-0.1-0.1-0.1-0.1-0.1-0.2
	c-0.1-3.1,0-6.1,0-9.2c0-4.2,0.3-8.5,0.3-12.7c0-1.3,0.1-2.5-0.1-3.8c0-0.3,0-0.6-0.3-0.8c-0.3-0.3-0.8-0.5-1.3-0.5
	c-0.8,0-1.6,0.1-2.4,0.3c-1.9,0.4-3.9,0.8-5.8,1.1c-2.3,0.5-4.6,0.9-6.9,1.4c-1.9,0.4-3.8,0.7-5.7,1.1c-0.4,0.1-0.8,0.2-1.3,0.3
	c-0.6,0.1-0.9,0.2-0.9,0.8c0,0.5,0,1,0,1.6c0,0.5,0,1,0,1.5c0,0.2,0,0.6,0.1,0.8c0.1,0.1,0.4,0.1,0.5,0.2c0.5,0.1,1.1,0.1,1.6,0.2
	c0.5,0.1,1,0.1,1.4,0.2c0.4,0.1,0.9,0,1.3,0.2c0.5,0.2,0.5,0.4,0.5,0.9c0,8.1,0.3,16.4,0.4,24.6c0.1,7.9-0.4,15.6-0.4,23.5
	c0,1.3,0,2.6,0,3.9c0,0.7,0,1.3-0.1,2c0,0.5,0.1,1,0,1.6c-0.1,0.5-0.7,0.5-1.1,0.6c-0.5,0.1-1,0.2-1.5,0.3c-0.5,0.1-1,0.1-1.5,0.3
	c-0.5,0.2-0.4,0.7-0.4,1.2c0,0.6,0,1.3,0,1.9c0,0.6-0.1,1.3,0,1.8c0,0.1,0,0.1,0.1,0.2c0,0,0,0,0,0c0,0,0.1,0,0.1,0
	c1.8,0.3,3.7,0.4,5.6,0.5c2.5,0.2,4.9,0.4,7.4,0.5c2,0.1,4,0.3,6,0.4c0.5,0,1.3,0.3,1.6-0.2c0.2-0.4,0.3-0.9,0.5-1.4
	c0-0.3,0.2-0.6,0.3-0.9c0.1-0.3,0.2-0.7,0.4-1c0.2-0.6,0.5-1.2,0.7-1.8c0.1-0.3,0.8,0.6,0.9,0.7c0.5,0.5,1,0.9,1.5,1.3
	c1,0.8,2.1,1.4,3.3,2c3.2,1.5,6.8,1.7,10.3,1.1c3.3-0.6,6.9-2,9.5-4c2.4-1.9,4.6-4.4,6-7.2c0.1,1.4,0.3,2.8,0.8,4.2
	c0.5,1.6,1.3,2.9,2.4,4.1c2.2,2.4,6,3.4,9.1,3.2c2.3-0.2,4.6-0.5,6.7-1.4c1.8-0.8,3.6-1.7,5.2-2.8c0.3-0.2,0.6-0.4,0.9-0.6
	c0.2-0.2,2.4-1.8,2.4-1.8c0,0,0.1,0,0.2-0.1c0.3-0.1,0.5-0.1,0.8,0.4c0.4,0.7,0.9,3.9,6.5,5.6c1.5,0.4,3,0.6,4.4,0.5
	c0.3,0,0.6,0,0.9,0c0.1,0,0.1,0,0.2,0c2.5-0.2,5.1-0.7,7.3-2c1.1-0.6,2.1-1.4,2.9-2.3c0.6-0.7,1.5-1.6,1.5-2.6
	C209.3,70.1,208.8,69.7,208.6,69.4z M133.3,66.5c-1.1,0.3-2.3,0.6-3.4,0.4c-0.8-0.1-2.1-0.2-2.7-0.9c-1.6-2.1-1.1-6.5-1.1-8.9
	c0-3.3,0-6.6,0.2-10c0.1-2.9-0.9-9.3,2.7-10.6c0.7-0.3,1.5-0.4,2.3-0.4c2,0,4,0.8,5.4,2.2c1.4,1.3,1.9,3.2,2.2,5.1
	c0.6,4,0.5,8.2,0.6,12.3C139.5,60,137.5,65.1,133.3,66.5z M184.6,61c0,0.5,0,1,0,1.6c0,0,0,0.1,0,0.1c0,2.3-1,2.7-1.5,3
	s-1.6,1.1-2.1,1.2c-2.2,0.8-6.3-0.7-6.9-3c-0.7-2.6,0-5.5,1.5-7.6c0.6-0.8,1.4-1.6,2.2-2.2c1.7-1.3,6.7-3.3,6.7-1.5
	C184.6,54.4,184.6,58.5,184.6,61z M62.3,67.5c-3.5-7.3-1.4-14.3,3.1-20.5c4.1-5.5,12.6-7.2,18.9-5.1c7.3,2.4,12.6,9.1,13.1,16.8
	c0.6,9.9-6.9,19.3-17.2,19.5c-0.3,0-0.6,0-0.9,0c-1.6-0.1-3.1-0.4-4.6-0.8C69.2,76.1,64.7,72.5,62.3,67.5z M117.1,134.5
	c0-0.4,0-0.7,0-1.1c0.2-3,0.8-6.1,2.1-8.9c2.1-4.4,6.2-7.4,10.8-8.9c7.1-2.4,16,0.2,20.8,5.9c3.6,4.2,4.7,11.4,3,16.7
	c-0.7,2.3-2,4.5-3.5,6.4c-3.2,3.9-7.3,6.6-12.4,7.1C128.4,152.4,117.4,144.5,117.1,134.5z M13.1,76.5c5.9,3.4,12.9,0.9,17.8-3
	c0.6-0.5,1.2-0.9,1.7-1.5c0.1-0.2,1.1-1.1,1-1.3c1,2.6,2.8,4.5,5.5,5.6c1.9,0.8,4.1,1.3,6.3,1.5c3,0.2,6-0.4,8.5-1.9
	c1.1-0.7,2.1-1.6,2.9-2.7c0.4-0.6,0.8-1.2,1.2-1.9c0.3-0.5,0.8-1.1,0.7-1.8c0-0.7-0.9-0.9-1.4-1.2c-0.9-0.5-1.2-0.7-2,0.2
	c-0.9,1.1-2.4,2.2-3.5,0.8c-0.9-1.1-0.9-3.1-0.9-4.4c0-2.4-0.1-6.1-0.1-8.5c0-5.8,0.1-10.7-0.2-15.6c-0.2-3.9-0.1-5.8-2.2-9.1
	c-1.6-2.5-4.1-4.1-7-5c-2.9-0.9-6-1.2-9-1.2c-4.9,0-9.9,0.4-14.5,2.1c-5.1,1.9-9.7,5.7-9.9,11.5c-0.2,4.3,3.7,6.5,7.5,6.5
	c2.1,0,4.1-0.9,5.7-2.6c1.4-1.4,2.2-3.6,2.4-6.6l0,0c0-0.1,0-0.1,0-0.2c0-0.6,0.1-1.2,0.1-1.9c0-0.2,0-0.4,0-0.6
	c0.1-0.6,0.4-0.7,1-0.7c0.6,0,1.4,0,2.3,0.1c0.6,0.1,1.6,0.2,2.4,0.4c0.7,0.2,1.7,0.5,2.3,1.4c0.4,0.5,0.6,0.8,0.8,1.4
	c0.4,1.9,0.4,4.1,0.4,5.9c0,0.7,0,1.4,0,2.1c0,1.2-0.1,1.5-1.3,1.8c-0.7,0.2-1.3,0.3-2,0.5c-1.1,0.3-2,0.6-2.8,0.8
	c-5.4,1.4-9.6,3-12.6,4.7c-1.9,1.1-3.9,2.4-5.2,4.2c-0.9,1.2-1.6,2.6-2.1,4c-0.5,1.5-0.7,2.8-0.7,4.4c0,2.4,0.4,4.9,1.7,6.9
	C9.3,73.6,11,75.3,13.1,76.5z M25.7,56.5c0.6-0.8,1.4-1.6,2.2-2.2c1.7-1.2,4.8-3.2,5.1-1.5c0,0.4,0,0.8,0,1.2c0,2,0,4.1,0,6.1
	c0,0.9,0,1.8,0,2.7c0,2.3-0.6,2.7-1.1,3c-0.5,0.4-1.6,1.1-2.1,1.2c-2.2,0.8-5.1-0.7-5.7-3C23.5,61.5,24.1,58.6,25.7,56.5z
	 M205.7,128.3c0.5,2.1,0.5,4.3,0.4,6.5c-0.2,4.6-2.6,9.1-6.4,11.7c-4.3,2.9-10.2,4.4-17.5,4.4c-5.8,0-11.6-1.2-16.8-4
	c-1.1-0.6-1.6-0.8-1.7-2c-0.1-0.9,0-1.9,0-2.8c0.1-1.6,0.4-3.3,0.4-4.9c0-1,0.1-2,0.2-3.1c0.2-1.5,2.6-1.3,3.6-1.2
	c1.4,0.1,2.9,0,4.3,0.5c1.3,0.4,1.5,1.4,1.6,2.6c0.1,0.8,0.2,1.6,0.3,2.3c0.1,0.4,0.1,0.8,0.2,1.1c0.1,0.6,0.2,0.7,0.5,1.4
	c0.3,0.7,0.7,0.9,1.4,1.2c0.7,0.2,3.3,0.8,4.8,0.9c1.5,0.1,4.3,0,5.8-0.5c1.5-0.5,2.7-1.2,3.1-1.9c0.3-0.6,0.5-1.2,0.3-2.2
	c-0.3-0.7-0.7-1.4-1.3-2.1c-1-1.1-3.2-2-6.6-2.9l-5.7-1.5c-4-1.1-7-3-9.1-5.7c-3.8-5-4.2-11.5-1.2-16.9c2-3.6,4.7-6.7,8.5-8.4
	c3.8-1.6,7.9-2.1,12-2.1c3.1,0,5.9,0.3,8.6,1c2.1,0.5,4.3,1,6.3,2c1.5,0.7,1.4,2.1,1.5,3.5c0.1,1.6,0,3.1,0.1,4.7
	c0.1,1.1,0.3,3.1-0.7,3.9c-0.5,0.4-2,0.2-2.6,0.3c-0.8,0.1-5.3,0.5-6.3,0c-0.9-0.5-1.2-2.6-1.4-3.8c-0.1-0.6-0.3-1.5-0.5-2.1
	c-0.3-1-1.1-1-1.6-1.1c-0.5-0.1-1.2-0.1-2.1-0.2c-0.9-0.1-2.7-0.2-4.2,0.2c-1.5,0.3-3,0.7-3.4,1.6c-0.1,0.3-0.2,0.7-0.3,1.1
	c-0.2,1.3,0,2.7,1.1,3.6c1.8,1.4,4.2,1.9,6.4,2.5c1.2,0.3,2.3,0.6,3.5,0.9c2,0.5,3.9,1.5,5.8,2.4c1.5,0.7,3.1,1.4,4.4,2.4
	C203.4,123.2,205,125.6,205.7,128.3z M108,143.2c-0.6-0.7-0.4-1.8-0.4-2.6c-0.1-7.1-0.1-14.2,0-21.3c0-3-0.1-5.6-0.1-8.7
	c0-2.7,0-5.5,0-8.5c0-1.2,0-1.6-0.7-2.2c-0.7-0.6-2.2-0.3-3.2-0.1c-3.2,0.5-6.5,1-9.7,1.7c-1.8,0.4-8.8,0.9-8.8,2.5
	c0,0.3-0.1,0.7-0.1,0.9c0.1,0.7-0.1,1.4,0.2,2.1c0.5,0.9,1.6,0.8,2.5,1c1.7,0.5,1.2,1.9,1.2,3.3c0,2.1,0.1,4.2,0.1,6.3
	c0,3-0.1,4-0.1,7c0,2,0,3.9,0,6c0,2.8-0.3,3.2-0.7,3.9c-0.2,0.3-0.4,0.5-0.6,0.7c-1.1,1.2-2.8,2.9-4.6,2.9c-1.3,0-2.3-0.5-3.2-1.5
	c-0.8-1-1.3-2.8-1.3-5.4c0-9.9-0.2-17.7-0.2-28c0-1.7,0.2-2.4-0.6-3.1c-0.7-0.6-1.6-0.5-2.6-0.3c-1.6,0.2-4.9,0.8-6.4,1.1
	c-2.1,0.3-4.1,0.6-6.2,1c-1.5,0.2-3,0.5-4.5,0.8c-0.1,0-0.3,0-0.4-0.1c-2.4,0-13.5,0-17,0c-0.8,0-1.2-0.1-1.6,0.6
	c-0.5,0.8-0.6,2.7-0.2,3.5c0.5,1.1,0.9,1.1,2.3,1.1c0.6,0,1.6,0,2.1,0c0.5,0,0.4,0.2-1.2,1.8c-0.4,0.4-1.7,1.6-1.7,1.6
	c-0.8,0.8-1.2,1.1-2,1.9c-0.2,0.2-0.3,0.3-0.5,0.5c-0.1,0.1-0.3,0.2-0.4,0.3c-0.9,0.8-1.8,1.7-2.7,2.6c-0.7,0.7-1.4,1.4-2.2,2.1
	c-0.5,0.5-1,1-1.6,1.5c-0.5,0.5-1,1-1.5,1.5c-1.3,1.3-1.4,0.3-1.4-1.1c0-7.4-0.1-8.3,0-15.7c0-2.6,0-8.1,0-10.7c0-1.4,0.2-3.5-1.9-3
	c-2.6,0.6-5.3,0.9-7.9,1.4c-3,0.6-6.1,1.2-9.1,1.8c-1.1,0.2-2.2,0.4-3.3,0.6c-1.2,0.2-2,0.1-2.2,1.4C3.6,97.7,3.3,99.5,5,100
	c1.4,0.4,3.9-0.2,4.2,1.7c0.2,1.1,0,2.3,0,3.4c0,2.6,0,5.2,0,7.8c0,1.2,0.1,2.4,0,3.7c-0.1,1.3-0.1,2.7-0.1,4c0,2.5,0,5.1,0,7.6
	c0,1.8,0,4.1,0,6.9c0,1.4,0,2.8,0,4.2c0,1,0.2,2.4-0.2,3.3c-0.8,1.4-3.2,0.6-4.2,1.7c-0.8,0.9-1,3.7,0,4.7c0.1,0.1,0.2,0.2,0.3,0.2
	c0.9,0.4,2.7,0.1,3.7,0.1c3.8,0,7.7,0,11.5,0c1.8,0,3.6,0,5.5,0c1.8,0,3.7,0.4,5.5,0c1.1-0.3,1.4-0.7,1.4-1.8c0-0.8,0.3-2.3-0.1-3
	c-0.5-1.1-2.4-1.1-3.4-1.2c-1.3-0.1-1-0.8-1.1-2c-0.1-2,0-5.5,0-7c0-1.4-0.2-3,1-4c0.6-0.5,1.9-2.4,2.3-1.5
	c0.7,1.4,5.9,13.4,8.4,18.1c0.6,1.1,1,1.7,2.2,2c2.2,0.4,4.6,0.3,6.9,0.3c2.7,0,5.4,0,8,0c1.6,0,3.3,0.2,4.9,0
	c0.7-0.1,1.5-0.1,1.9-0.7c0.2-0.3,0.3-0.7,0.3-1.1c2.6,2.2,5.9,3.3,9.9,3.3c5.4,0,9.8-2.7,13.4-6.6c0.5-0.5,1.8-1.8,1.8-0.3
	c0,1.6-0.4,3.8,0.2,5.3c0.1,0.3,0.3,0.5,0.4,0.6c0.5,0.5,1.2,0.5,2,0.4c3.8-0.2,7.6-0.4,11.4-0.5c2.2-0.1,4.4,0.1,6.7-0.2
	c0.7-0.1,2.1-0.1,2.6-0.8c0.6-0.8,0.4-3.6-0.2-4.4C111.2,143.3,108.8,144.1,108,143.2z M59.9,143.2c-0.9-0.3-2.2-0.2-2.9-0.9
	c-0.9-1-1.8-2.8-2.4-4c-1.5-3-2.5-5.6-3.9-8.6c-1.5-3.1-2.4-4.9-3.7-8.1c-0.7-1.8-2.2-3.5-1.8-5.5c0.3-1.7,1.6-2.5,3.4-4.1
	c1.5-1.3,4.2-4.3,4.7-4.3c1.1,0,2.8-0.1,3.9-0.2c0.4,0,0.7-0.1,0.9-0.2c0.4,0.1,0.8,0.3,1.2,0.4c0.1,0,0.2,0.1,0.3,0.1
	c0.1,0,0.1,0.2,0.1,0.3c0.2,5.1,0,9.7,0,14.5c-0.1,3.5,0.1,8.3,0,11.8c0,4.1,0.2,6.8,1.1,9C60.5,143.3,60.2,143.2,59.9,143.2z"/>
</svg>
