<?xml version="1.0" encoding="utf-8"?>
<!-- Generator: Adobe Illustrator 24.0.1, SVG Export Plug-In . SVG Version: 6.00 Build 0)  -->
<svg version="1.1" id="Layer_1" xmlns="http://www.w3.org/2000/svg" xmlns:xlink="http://www.w3.org/1999/xlink" x="0px" y="0px"
	 viewBox="0 0 278.5 98.8" style="enable-background:new 0 0 278.5 98.8;" xml:space="preserve">
<style type="text/css">
	.st0{fill:#FFFFFF;}
</style>
<g>
	<path class="st0" d="M2.2,36.2h27.7v8.5H11.1v16.5h17.5v8.5H11.1v16.5h18.8v8.5H2.2V36.2z"/>
	<path class="st0" d="M64.8,36.2H82c10.1,0,17.4,7.2,17.4,17.1v24.1c0,10-7.3,17.2-17.4,17.2H64.8V36.2z M82,86.2
		c5,0,8.5-3.6,8.5-8.7V53.4c0-5-3.5-8.6-8.5-8.6h-8.4v41.4H82z"/>
	<path class="st0" d="M134.3,78.3V36.2h8.9v42.1c0,5.1,3.5,8.7,8.5,8.7c5,0,8.6-3.6,8.6-8.7V36.2h8.9v42.1c0,10-7.3,17.2-17.5,17.2
		C141.4,95.6,134.3,88.4,134.3,78.3z"/>
	<path class="st0" d="M204,7.3c0-2.3,1.7-3.9,3.9-3.9s3.8,1.7,3.8,3.9c0,2.3-1.6,3.9-3.8,3.9S204,9.6,204,7.3z M204.9,44.6h5.9v50.1
		h-5.9V44.6z"/>
	<path class="st0" d="M246.7,44.6h5.9v3.3c2.3-2.6,5.7-4.1,9.6-4.1c7.8,0,13.5,5.4,13.5,13.8v37.2h-6V58.1c0-5.3-3.5-8.8-8.5-8.8
		c-5,0-8.5,3.5-8.5,8.8v36.6h-5.9V44.6z"/>
</g>
</svg>
